<svg width="4" height="16" viewBox="0 0 4 16" fill="none" xmlns="http://www.w3.org/2000/svg">
<path d="M2.0001 2.66669C2.73648 2.66669 3.33345 2.06973 3.33345 1.33334C3.33345 0.596958 2.73648 0 2.0001 0C1.26371 0 0.666748 0.596958 0.666748 1.33334C0.666748 2.06973 1.26371 2.66669 2.0001 2.66669Z" fill="#858D9D"/>
<path d="M2.0001 9.33335C2.73648 9.33335 3.33345 8.73639 3.33345 8.00001C3.33345 7.26362 2.73648 6.66666 2.0001 6.66666C1.26371 6.66666 0.666748 7.26362 0.666748 8.00001C0.666748 8.73639 1.26371 9.33335 2.0001 9.33335Z" fill="#858D9D"/>
<path d="M2.0001 16C2.73648 16 3.33345 15.403 3.33345 14.6666C3.33345 13.9302 2.73648 13.3333 2.0001 13.3333C1.26371 13.3333 0.666748 13.9302 0.666748 14.6666C0.666748 15.403 1.26371 16 2.0001 16Z" fill="#858D9D"/>
</svg>
